<svg id="circle" xmlns="http://www.w3.org/2000/svg" xmlns:xlink="http://www.w3.org/1999/xlink" width="20.889" height="20.888" viewBox="0 0 20.889 20.888">
  <defs>
    <clipPath id="clip-path">
      <rect id="Rectangle_34" data-name="Rectangle 34" width="20.889" height="20.888" fill="#fff"/>
    </clipPath>
  </defs>
  <g id="Group_1046" data-name="Group 1046" transform="translate(0 0)" clip-path="url(#clip-path)">
    <path id="Path_330" data-name="Path 330" d="M20.889,9.133h-.008A9.1,9.1,0,0,1,14.43,6.458,9.1,9.1,0,0,1,11.755,0a11.692,11.692,0,0,1-1.311,5.387A11.693,11.693,0,0,0,11.755,0V0H9.133q0,2.337,0,0A9.1,9.1,0,0,1,6.458,6.458a9.1,9.1,0,0,1-6.1,2.666h0c-.119,0-.238.01-.356.01v2.6c.116,0,.233.005.349.01A11.7,11.7,0,0,0,5.41,10.435a11.814,11.814,0,0,0,5.035-5.044A11.8,11.8,0,0,0,15.5,10.445c.079.041.161.077.242.116-.08-.039-.162-.075-.242-.116a11.8,11.8,0,0,0-5.049,5.043A11.814,11.814,0,0,0,5.41,10.435,11.7,11.7,0,0,1,.349,11.747a9.094,9.094,0,0,1,6.11,2.665,9.1,9.1,0,0,1,2.675,6.459h2.622v.017a9.134,9.134,0,0,1,9.134-9.133c-.391,0-.777-.024-1.158-.062.381.038.766.062,1.158.062Z" transform="translate(0 0)" fill="#fff"/>
  </g>
</svg>
