<svg xmlns="http://www.w3.org/2000/svg" xmlns:xlink="http://www.w3.org/1999/xlink" width="101" height="102" viewBox="0 0 101 102">
  <defs>
    <clipPath id="clip-path">
      <rect id="Rectangle_21" data-name="Rectangle 21" width="75.555" height="46.013" fill="none"/>
    </clipPath>
  </defs>
  <g id="if" transform="translate(-1319.572 -1219.072)">
    <rect id="if-2" data-name="if" width="101" height="102" transform="translate(1319.572 1219.072)"/>
    <g id="Group_1215" data-name="Group 1215" transform="translate(1331.892 1246.402)">
      <g id="Group_1" data-name="Group 1" clip-path="url(#clip-path)">
        <path id="Path_1" data-name="Path 1" d="M1.83,113.913a3.149,3.149,0,0,1-.484-.108,2.408,2.408,0,0,1-.465-.192,1.691,1.691,0,0,1-.4-.3A2.5,2.5,0,0,1,.251,113a1.719,1.719,0,0,1-.166-.347A1.805,1.805,0,0,1,0,112.288v-3.16a5.262,5.262,0,0,1,.148-.535,2.469,2.469,0,0,1,.238-.511,1.555,1.555,0,0,1,.387-.421l.289-.165a2.208,2.208,0,0,1,.3-.137,2.281,2.281,0,0,1,.324-.1H7.093a2.3,2.3,0,0,1,.375.107,1.907,1.907,0,0,1,.358.183,1.989,1.989,0,0,1,.312.256,1.635,1.635,0,0,1,.251.375,1.685,1.685,0,0,1,.131.421,1.786,1.786,0,0,1,.017.467l-.217.33a.409.409,0,0,1-.147.09.55.55,0,0,1-.194.034H7.786a.767.767,0,0,1-.341-.215.441.441,0,0,1-.079-.25,1.774,1.774,0,0,0-.017-.257.42.42,0,0,0-.109-.221.536.536,0,0,0-.329-.137H1.921c-.06.015-.121.028-.181.04a.531.531,0,0,0-.182.073.473.473,0,0,0-.148.148c-.038.061-.072.121-.1.182a1.475,1.475,0,0,0-.08.2,2.156,2.156,0,0,0-.056.222v2.739l.182.454a.694.694,0,0,0,.131.1.483.483,0,0,0,.147.062c.05.011.1.025.165.04H6.969c.15-.068.235-.146.249-.233s.029-.174.041-.261a1.17,1.17,0,0,1,.063-.255.408.408,0,0,1,.16-.2.383.383,0,0,1,.152-.1.554.554,0,0,1,.176-.028h.182l.307.182a.445.445,0,0,1,.118.21,1.1,1.1,0,0,1,.028.256v.249a2.051,2.051,0,0,1-.09.336,1.607,1.607,0,0,1-.149.3,2.287,2.287,0,0,1-.215.3,2.737,2.737,0,0,1-.313.227,1.175,1.175,0,0,1-.364.148c-.133.03-.255.057-.37.079Z" transform="translate(0 -74.025)" fill="#fff"/>
        <path id="Path_2" data-name="Path 2" d="M34.814,113.913a.4.4,0,0,0-.149-.045.258.258,0,0,1-.153-.074l-.118-.119-.114-.216v-5.742a.574.574,0,0,1,.272-.386.775.775,0,0,1,.263-.068h.18a.547.547,0,0,1,.456.454v2.343h6.1v-2.376a.347.347,0,0,0,.085-.148.277.277,0,0,1,.108-.148.855.855,0,0,1,.16-.091l.363-.034a.544.544,0,0,1,.455.454v5.719a.626.626,0,0,1-.637.477.635.635,0,0,1-.534-.453v-2.195h-6.1v2.195c-.024.045-.05.093-.08.142a.744.744,0,0,1-.12.148.728.728,0,0,1-.13.109Z" transform="translate(-23.657 -74.025)" fill="#fff"/>
        <path id="Path_3" data-name="Path 3" d="M69.741,113.913a.587.587,0,0,1-.579-.453v-5.742a.57.57,0,0,1,.272-.386.776.776,0,0,1,.262-.068h.182q.42.126.455.454v5.742a.589.589,0,0,1-.592.453" transform="translate(-47.73 -74.025)" fill="#fff"/>
        <path id="Path_4" data-name="Path 4" d="M78.955,113.921l-.33-.215a.349.349,0,0,1-.085-.149.584.584,0,0,1-.028-.181v-.181l1.352-2.161.261-.159h3.91v-.057l-1.863-2.74a.606.606,0,0,1,.18-.716.423.423,0,0,1,.148-.092.541.541,0,0,1,.182-.033,1.02,1.02,0,0,0,.17-.012c.053-.007.189.069.41.227l3.729,5.719a1.2,1.2,0,0,1-.16.614.479.479,0,0,1-.2.114.9.9,0,0,1-.206.022h-.2l-.329-.215-1.024-1.649h-4.3L79.5,113.763c-.061.045-.116.082-.165.113a.341.341,0,0,1-.183.045Z" transform="translate(-54.183 -73.998)" fill="#fff"/>
        <path id="Path_5" data-name="Path 5" d="M111.735,113.913a.416.416,0,0,0-.148-.045.252.252,0,0,1-.153-.074l-.119-.119-.114-.216v-2.819a.574.574,0,0,1,.568-.49h5.65c.319-.1.49-.177.512-.238a1.324,1.324,0,0,1,.092-.193.447.447,0,0,0,.056-.211.754.754,0,0,1,.034-.222,1.426,1.426,0,0,1-.046-.233.523.523,0,0,0-.056-.193.833.833,0,0,0-.136-.176c-.061-.045-.117-.083-.165-.113a.66.66,0,0,0-.182-.074l-.2-.051h-5.684l-.329-.216a.35.35,0,0,1-.085-.147.6.6,0,0,1-.029-.183v-.182a.649.649,0,0,1,.443-.454h5.866c.158.046.32.093.483.142a1.787,1.787,0,0,1,.455.21,1.7,1.7,0,0,1,.381.341,2.672,2.672,0,0,1,.3.494,1.8,1.8,0,0,1,.155.558,2.926,2.926,0,0,1,0,.607c-.023.122-.048.237-.075.347a1.077,1.077,0,0,1-.13.314,3.137,3.137,0,0,0-.16.294,1.864,1.864,0,0,1,.182.159,1.073,1.073,0,0,1,.153.194,1.065,1.065,0,0,0,.154.193,2.275,2.275,0,0,1,.227.738,5.037,5.037,0,0,1,.029.78c-.013.269-.018.536-.018.8a.583.583,0,0,1-.636.477.621.621,0,0,1-.522-.51l-.012-.785q.045-.875-.238-1.081a.732.732,0,0,0-.142-.091.515.515,0,0,0-.166-.045.4.4,0,0,1-.148-.046H112.37v2.1c-.023.045-.05.093-.079.142a.779.779,0,0,1-.12.148.7.7,0,0,1-.131.109Z" transform="translate(-76.741 -74.025)" fill="#fff"/>
        <path id="Path_6" data-name="Path 6" d="M143.262,113.921l-.329-.215a.364.364,0,0,1-.087-.149.623.623,0,0,1-.029-.181v-.181l1.354-2.161.261-.159h3.911v-.057l-1.865-2.74a.6.6,0,0,1,.183-.716.406.406,0,0,1,.148-.092.537.537,0,0,1,.181-.033,1.016,1.016,0,0,0,.17-.012c.053-.007.19.069.41.227l3.728,5.719a1.2,1.2,0,0,1-.159.614.486.486,0,0,1-.2.114.892.892,0,0,1-.2.022h-.2l-.331-.215-1.022-1.649h-4.3l-1.08,1.706c-.061.045-.115.082-.165.113a.338.338,0,0,1-.182.045Z" transform="translate(-98.562 -73.998)" fill="#fff"/>
        <path id="Path_7" data-name="Path 7" d="M181.486,112.6a.824.824,0,0,0,.2-.2.653.653,0,0,0,.1-.245c.019-.09.04-.174.063-.249v-2.649a1.044,1.044,0,0,1-.052-.2.8.8,0,0,0-.061-.209.4.4,0,0,0-.125-.16c-.061-.045-.119-.086-.171-.125a.44.44,0,0,0-.182-.073c-.067-.012-.132-.024-.194-.04h-5.32v4.263h5.412Zm-6.378,1.318a.4.4,0,0,0-.148-.045.454.454,0,0,1-.193-.079.673.673,0,0,1-.194-.33v-5.742a.5.5,0,0,1,.443-.454h6.23c.16.046.318.093.478.142a1.846,1.846,0,0,1,.448.21,1.96,1.96,0,0,1,.393.341,1.841,1.841,0,0,1,.216.318,2.139,2.139,0,0,1,.148.346,3.244,3.244,0,0,1,.091.359v3.1c-.038.175-.084.348-.137.517a1.926,1.926,0,0,1-.227.484,1.614,1.614,0,0,1-.386.408,1.482,1.482,0,0,1-.33.211,1.91,1.91,0,0,1-.381.13c-.133.03-.266.057-.4.079Z" transform="translate(-120.476 -74.025)" fill="#fff"/>
        <path id="Path_8" data-name="Path 8" d="M208.267,113.913a.585.585,0,0,1-.578-.453v-5.742a.565.565,0,0,1,.273-.386.76.76,0,0,1,.26-.068h.183c.281.084.432.236.455.454v5.742a.588.588,0,0,1-.592.453" transform="translate(-143.33 -74.025)" fill="#fff"/>
        <path id="Path_9" data-name="Path 9" d="M216.894,113.921l-.33-.215a.355.355,0,0,1-.085-.149.586.586,0,0,1-.03-.181v-.181l1.354-2.161.261-.159h3.91v-.057l-1.863-2.74a.606.606,0,0,1,.182-.716.4.4,0,0,1,.147-.092.538.538,0,0,1,.182-.033,1.023,1.023,0,0,0,.17-.012q.079-.01.409.227l3.729,5.719a1.2,1.2,0,0,1-.159.614.479.479,0,0,1-.2.114.874.874,0,0,1-.2.022h-.2l-.331-.215-1.023-1.649h-4.3l-1.08,1.706c-.061.045-.116.082-.164.113a.344.344,0,0,1-.183.045Z" transform="translate(-149.376 -73.998)" fill="#fff"/>
        <path id="Path_10" data-name="Path 10" d="M1.747,139.572H.485v1.17h1.4v.352H.064v-3.245H1.819v.352H.485v1.023H1.747Z" transform="translate(-0.044 -95.132)" fill="#fff"/>
        <path id="Path_11" data-name="Path 11" d="M25.95,141.094l-.414-.717c-.167-.276-.275-.452-.374-.641H25.15c-.09.188-.182.361-.35.645l-.391.713h-.482l.992-1.643-.954-1.6h.486l.429.76c.12.212.212.376.3.548h.015c.092-.192.174-.342.293-.548l.445-.76h.48l-.986,1.579,1.012,1.667Z" transform="translate(-16.513 -95.132)" fill="#fff"/>
        <path id="Path_12" data-name="Path 12" d="M50.42,137.848v1.359h1.57v-1.359h.423v3.245H51.99v-1.522H50.42v1.522H50v-3.245Z" transform="translate(-34.507 -95.132)" fill="#fff"/>
        <rect id="Rectangle_18" data-name="Rectangle 18" width="0.419" height="3.245" transform="translate(23.476 42.717)" fill="#fff"/>
        <path id="Path_13" data-name="Path 13" d="M95.5,140.724a2.383,2.383,0,0,0,.352.02c.432,0,.833-.159.833-.632,0-.442-.381-.626-.838-.626H95.5Zm0-1.556h.381c.444,0,.7-.231.7-.545,0-.379-.289-.528-.713-.528a1.774,1.774,0,0,0-.37.029Zm-.419-1.328a4.133,4.133,0,0,1,.766-.067,1.344,1.344,0,0,1,.89.235.682.682,0,0,1,.271.573.773.773,0,0,1-.549.714v.009a.837.837,0,0,1,.668.814.873.873,0,0,1-.274.649,1.621,1.621,0,0,1-1.121.3,5.184,5.184,0,0,1-.65-.038Z" transform="translate(-65.62 -95.08)" fill="#fff"/>
        <rect id="Rectangle_19" data-name="Rectangle 19" width="0.419" height="3.245" transform="translate(37.081 42.717)" fill="#fff"/>
        <path id="Path_14" data-name="Path 14" d="M139.975,138.2h-.986v-.356h2.4v.356H140.4v2.89h-.424Z" transform="translate(-95.919 -95.132)" fill="#fff"/>
        <rect id="Rectangle_20" data-name="Rectangle 20" width="0.419" height="3.245" transform="translate(51.041 42.717)" fill="#fff"/>
        <path id="Path_15" data-name="Path 15" d="M184.488,139.373c0,.691.375,1.313,1.034,1.313s1.041-.612,1.041-1.348c0-.645-.336-1.32-1.036-1.32s-1.039.641-1.039,1.355m2.517-.055a1.518,1.518,0,0,1-1.507,1.709,1.486,1.486,0,0,1-1.46-1.645,1.543,1.543,0,0,1,1.509-1.7,1.478,1.478,0,0,1,1.457,1.641" transform="translate(-127.009 -95.014)" fill="#fff"/>
        <path id="Path_16" data-name="Path 16" d="M211.589,141.094v-3.245h.457l1.039,1.643a9.14,9.14,0,0,1,.582,1.053l.011,0c-.04-.432-.048-.827-.048-1.332v-1.359h.392v3.245H213.6l-1.031-1.646a10.5,10.5,0,0,1-.607-1.085l-.014,0c.025.409.033.8.033,1.338v1.387Z" transform="translate(-146.022 -95.132)" fill="#fff"/>
        <path id="Path_17" data-name="Path 17" d="M237.524,140.465a1.491,1.491,0,0,0,.752.213c.429,0,.679-.227.679-.555,0-.3-.173-.478-.613-.645-.529-.187-.857-.463-.857-.921a.934.934,0,0,1,1.049-.88,1.492,1.492,0,0,1,.719.159l-.117.341a1.3,1.3,0,0,0-.617-.154c-.442,0-.609.266-.609.487,0,.3.195.452.644.624.549.215.828.479.828.953,0,.5-.37.939-1.134.939a1.689,1.689,0,0,1-.829-.21Z" transform="translate(-163.847 -95.014)" fill="#fff"/>
        <path id="Path_18" data-name="Path 18" d="M128.462,13.558a15.141,15.141,0,0,1,6.983-1.7,11.8,11.8,0,0,1-8.367-3.47,11.807,11.807,0,0,1-3.47-8.37A15.164,15.164,0,0,1,121.909,7a15.31,15.31,0,0,0,6.553,6.554" transform="translate(-84.132 -0.012)" fill="#fcbb76"/>
        <path id="Path_19" data-name="Path 19" d="M121.925,50.257a15.167,15.167,0,0,1,1.695,6.982v.023a11.846,11.846,0,0,1,11.847-11.846,15.192,15.192,0,0,1-6.993-1.7,15.309,15.309,0,0,0-6.548,6.541" transform="translate(-84.143 -30.169)" fill="#f287b7"/>
        <path id="Path_20" data-name="Path 20" d="M143.057,39.928a15.188,15.188,0,0,0,6.993,1.7v-3.4h-.01a15.141,15.141,0,0,0-6.983,1.7" transform="translate(-98.726 -26.381)" fill="#f7941e"/>
        <path id="Path_21" data-name="Path 21" d="M86.22,43.675a15.179,15.179,0,0,1-6.564,1.7A11.837,11.837,0,0,1,91.049,57.21h0a15.186,15.186,0,0,1,1.7-6.982,15.322,15.322,0,0,0-6.535-6.553" transform="translate(-54.972 -30.141)" fill="#67c18c"/>
        <path id="Path_22" data-name="Path 22" d="M118.128,64.823a15.19,15.19,0,0,0-1.7,6.982h3.4a15.167,15.167,0,0,0-1.695-6.982" transform="translate(-80.346 -44.736)" fill="#ec008c"/>
        <path id="Path_23" data-name="Path 23" d="M92.772,6.992A15.173,15.173,0,0,1,91.072,0,11.8,11.8,0,0,1,87.6,8.376a11.8,11.8,0,0,1-7.914,3.458,15.166,15.166,0,0,1,6.554,1.7,15.322,15.322,0,0,0,6.53-6.542" transform="translate(-54.995)" fill="#44c8f5"/>
        <path id="Path_24" data-name="Path 24" d="M119.821.005V0h-3.4a15.172,15.172,0,0,0,1.7,6.992,15.166,15.166,0,0,0,1.7-6.987" transform="translate(-80.344)" fill="#00aeef"/>
        <path id="Path_25" data-name="Path 25" d="M78.658,38.186c-.154.006-.308.012-.462.012v3.376c.151,0,.3.007.452.013a15.175,15.175,0,0,0,6.564-1.7,15.166,15.166,0,0,0-6.554-1.7" transform="translate(-53.965 -26.353)" fill="#00a651"/>
      </g>
    </g>
  </g>
</svg>
