<svg id="logo" xmlns="http://www.w3.org/2000/svg" xmlns:xlink="http://www.w3.org/1999/xlink" width="280.785" height="171" viewBox="0 0 280.785 171">
  <defs>
    <clipPath id="clip-path">
      <rect id="Rectangle_21" data-name="Rectangle 21" width="280.785" height="171" fill="none"/>
    </clipPath>
  </defs>
  <g id="Group_1" data-name="Group 1" clip-path="url(#clip-path)">
    <path id="Path_1" data-name="Path 1" d="M6.8,131.975a11.7,11.7,0,0,1-1.8-.4,8.947,8.947,0,0,1-1.726-.714,6.282,6.282,0,0,1-1.5-1.122,9.284,9.284,0,0,1-.843-1.159,6.39,6.39,0,0,1-.618-1.291A6.709,6.709,0,0,1,0,125.936V114.192a19.555,19.555,0,0,1,.549-1.987,9.175,9.175,0,0,1,.886-1.9,5.777,5.777,0,0,1,1.438-1.565c.392-.226.754-.43,1.074-.611a8.205,8.205,0,0,1,1.1-.51,8.482,8.482,0,0,1,1.2-.357H26.361a8.525,8.525,0,0,1,1.395.4,7.087,7.087,0,0,1,1.33.681,7.394,7.394,0,0,1,1.16.951,6.079,6.079,0,0,1,.933,1.393,6.263,6.263,0,0,1,.486,1.563,6.64,6.64,0,0,1,.062,1.734l-.8,1.225a1.52,1.52,0,0,1-.545.335,2.043,2.043,0,0,1-.721.127h-.721a2.848,2.848,0,0,1-1.267-.8,1.638,1.638,0,0,1-.294-.931,6.6,6.6,0,0,0-.063-.954,1.561,1.561,0,0,0-.4-.821,1.99,1.99,0,0,0-1.222-.508H7.138c-.225.056-.45.1-.674.147a1.976,1.976,0,0,0-.676.273,1.76,1.76,0,0,0-.55.552c-.142.227-.267.45-.38.675a5.484,5.484,0,0,0-.3.741,8.019,8.019,0,0,0-.21.826v10.18l.676,1.688a2.578,2.578,0,0,0,.486.383,1.8,1.8,0,0,0,.547.229c.185.04.389.093.613.147H25.9c.557-.252.872-.542.924-.865s.108-.648.151-.971a4.346,4.346,0,0,1,.233-.949,1.516,1.516,0,0,1,.593-.761,1.424,1.424,0,0,1,.567-.36,2.06,2.06,0,0,1,.655-.1H29.7l1.142.676a1.654,1.654,0,0,1,.439.78,4.086,4.086,0,0,1,.1.952v.927a7.619,7.619,0,0,1-.333,1.249,5.97,5.97,0,0,1-.554,1.118,8.5,8.5,0,0,1-.8,1.1,10.172,10.172,0,0,1-1.162.842,4.37,4.37,0,0,1-1.353.55c-.493.111-.947.211-1.374.293Z" transform="translate(0 16.262)" fill="#fff"/>
    <path id="Path_2" data-name="Path 2" d="M36.267,131.975a1.486,1.486,0,0,0-.555-.166.96.96,0,0,1-.569-.275c-.151-.154-.3-.3-.439-.442l-.425-.8V108.952a2.134,2.134,0,0,1,1.011-1.435,2.88,2.88,0,0,1,.977-.253h.67a2.034,2.034,0,0,1,1.694,1.688v8.706H61.314v-8.832a1.291,1.291,0,0,0,.317-.548,1.029,1.029,0,0,1,.4-.549,3.178,3.178,0,0,1,.593-.34l1.349-.126a2.022,2.022,0,0,1,1.691,1.688V130.2a2.325,2.325,0,0,1-2.368,1.771,2.359,2.359,0,0,1-1.984-1.685v-8.156H38.631v8.156c-.088.166-.187.347-.3.526a2.763,2.763,0,0,1-.445.549,2.705,2.705,0,0,1-.485.4Z" transform="translate(5.197 16.262)" fill="#fff"/>
    <path id="Path_3" data-name="Path 3" d="M71.312,131.975a2.181,2.181,0,0,1-2.15-1.685V108.952a2.117,2.117,0,0,1,1.011-1.435,2.885,2.885,0,0,1,.973-.253h.677q1.56.468,1.691,1.688V130.29a2.189,2.189,0,0,1-2.2,1.685" transform="translate(10.486 16.262)" fill="#fff"/>
    <path id="Path_4" data-name="Path 4" d="M80.159,132.109l-1.225-.8a1.3,1.3,0,0,1-.317-.553,2.169,2.169,0,0,1-.1-.674v-.673l5.026-8.03.971-.592H99.041v-.213L92.116,110.4a2.254,2.254,0,0,1,.67-2.66,1.571,1.571,0,0,1,.552-.341,2.012,2.012,0,0,1,.677-.124,3.788,3.788,0,0,0,.632-.044c.2-.025.7.256,1.522.845l13.857,21.253a4.473,4.473,0,0,1-.593,2.28,1.777,1.777,0,0,1-.737.423,3.362,3.362,0,0,1-.765.082h-.738l-1.222-.8-3.806-6.13H86.2l-4.011,6.342c-.227.166-.431.3-.613.418a1.266,1.266,0,0,1-.679.168Z" transform="translate(11.903 16.256)" fill="#fff"/>
    <path id="Path_5" data-name="Path 5" d="M113.188,131.975a1.544,1.544,0,0,0-.552-.166.938.938,0,0,1-.57-.275c-.153-.154-.3-.3-.441-.442l-.425-.8V119.813a2.132,2.132,0,0,1,2.11-1.821h21c1.184-.363,1.82-.656,1.9-.883a4.911,4.911,0,0,1,.341-.716,1.66,1.66,0,0,0,.207-.783,2.8,2.8,0,0,1,.128-.827,5.3,5.3,0,0,1-.172-.867,1.945,1.945,0,0,0-.207-.717,3.092,3.092,0,0,0-.507-.655c-.226-.166-.433-.309-.615-.419a2.454,2.454,0,0,0-.675-.275c-.271-.069-.515-.135-.737-.191H112.847l-1.222-.8a1.3,1.3,0,0,1-.317-.548,2.215,2.215,0,0,1-.108-.679v-.676a2.411,2.411,0,0,1,1.647-1.688h21.8c.589.172,1.191.347,1.794.529a6.639,6.639,0,0,1,1.692.782,6.311,6.311,0,0,1,1.414,1.267,9.927,9.927,0,0,1,1.118,1.836,6.684,6.684,0,0,1,.575,2.074,10.872,10.872,0,0,1,0,2.257c-.086.454-.18.88-.279,1.29a4,4,0,0,1-.484,1.165,11.654,11.654,0,0,0-.594,1.094,6.914,6.914,0,0,1,.677.591,3.987,3.987,0,0,1,.57.72,3.954,3.954,0,0,0,.572.717,8.456,8.456,0,0,1,.845,2.744,18.719,18.719,0,0,1,.107,2.9c-.047,1-.067,1.992-.067,2.977a2.167,2.167,0,0,1-2.364,1.771,2.306,2.306,0,0,1-1.942-1.9l-.046-2.916q.168-3.251-.884-4.016a2.723,2.723,0,0,0-.526-.337,1.915,1.915,0,0,0-.616-.166,1.469,1.469,0,0,1-.552-.17H115.55v7.816c-.085.166-.184.347-.295.526a2.89,2.89,0,0,1-.445.549,2.6,2.6,0,0,1-.488.4Z" transform="translate(16.859 16.262)" fill="#fff"/>
    <path id="Path_6" data-name="Path 6" d="M144.468,132.109l-1.222-.8a1.354,1.354,0,0,1-.322-.553,2.316,2.316,0,0,1-.106-.674v-.673l5.033-8.03.969-.592h14.534v-.213L156.422,110.4a2.246,2.246,0,0,1,.679-2.66,1.51,1.51,0,0,1,.549-.341,2,2,0,0,1,.674-.124,3.77,3.77,0,0,0,.632-.044c.2-.025.707.256,1.522.845l13.856,21.253a4.46,4.46,0,0,1-.59,2.28,1.805,1.805,0,0,1-.739.423,3.318,3.318,0,0,1-.761.082h-.738l-1.229-.8-3.8-6.13H150.51l-4.014,6.342c-.226.166-.426.3-.612.418a1.257,1.257,0,0,1-.677.168Z" transform="translate(21.652 16.256)" fill="#fff"/>
    <path id="Path_7" data-name="Path 7" d="M200.264,127.079a3.059,3.059,0,0,0,.734-.742,2.428,2.428,0,0,0,.381-.909c.069-.334.147-.645.235-.927v-9.844a3.871,3.871,0,0,1-.195-.742,2.983,2.983,0,0,0-.226-.777,1.485,1.485,0,0,0-.465-.6c-.227-.166-.442-.319-.637-.465a1.634,1.634,0,0,0-.676-.273c-.25-.044-.492-.091-.721-.147h-19.77V127.5h20.112Zm-23.7,4.9a1.488,1.488,0,0,0-.55-.166,1.685,1.685,0,0,1-.717-.293,2.5,2.5,0,0,1-.72-1.226V108.952a1.848,1.848,0,0,1,1.647-1.688h23.154c.593.172,1.182.347,1.776.529a6.854,6.854,0,0,1,1.666.782,7.28,7.28,0,0,1,1.459,1.267,6.848,6.848,0,0,1,.8,1.183,7.945,7.945,0,0,1,.549,1.285,12.042,12.042,0,0,1,.339,1.335v11.531c-.142.652-.313,1.293-.508,1.923a7.153,7.153,0,0,1-.845,1.8,6,6,0,0,1-1.435,1.517,5.5,5.5,0,0,1-1.225.785,7.1,7.1,0,0,1-1.418.485c-.494.111-.99.211-1.5.293Z" transform="translate(26.467 16.262)" fill="#fff"/>
    <path id="Path_8" data-name="Path 8" d="M209.838,131.975a2.176,2.176,0,0,1-2.149-1.685V108.952a2.1,2.1,0,0,1,1.015-1.435,2.825,2.825,0,0,1,.965-.253h.678c1.045.312,1.605.875,1.689,1.688V130.29a2.186,2.186,0,0,1-2.2,1.685" transform="translate(31.487 16.262)" fill="#fff"/>
    <path id="Path_9" data-name="Path 9" d="M218.1,132.109l-1.226-.8a1.321,1.321,0,0,1-.317-.553,2.177,2.177,0,0,1-.111-.674v-.673l5.031-8.03.971-.592h14.532v-.213L230.059,110.4a2.252,2.252,0,0,1,.676-2.66,1.48,1.48,0,0,1,.547-.341,2,2,0,0,1,.677-.124,3.8,3.8,0,0,0,.632-.044q.292-.038,1.52.845l13.858,21.253a4.464,4.464,0,0,1-.592,2.28,1.777,1.777,0,0,1-.742.423,3.253,3.253,0,0,1-.758.082h-.737l-1.23-.8-3.8-6.13H224.142l-4.012,6.342c-.226.166-.432.3-.61.418a1.277,1.277,0,0,1-.679.168Z" transform="translate(32.815 16.256)" fill="#fff"/>
    <path id="Path_10" data-name="Path 10" d="M6.317,144.254H1.628V148.6H6.846v1.309H.064V137.848h6.52v1.309H1.628v3.8H6.317Z" transform="translate(0.01 20.899)" fill="#fff"/>
    <path id="Path_11" data-name="Path 11" d="M31.442,149.91,29.9,147.245c-.622-1.025-1.02-1.681-1.391-2.38h-.044c-.334.7-.675,1.34-1.3,2.4l-1.452,2.65h-1.79l3.686-6.107-3.545-5.954h1.807l1.593,2.826c.447.788.789,1.4,1.107,2.038h.058c.342-.712.648-1.271,1.091-2.038l1.653-2.826h1.783l-3.666,5.866,3.761,6.195Z" transform="translate(3.628 20.899)" fill="#fff"/>
    <path id="Path_12" data-name="Path 12" d="M51.558,137.848V142.9h5.833v-5.049h1.572v12.061H57.391v-5.656H51.558v5.656H50V137.848Z" transform="translate(7.581 20.899)" fill="#fff"/>
    <rect id="Rectangle_18" data-name="Rectangle 18" width="1.557" height="12.061" transform="translate(87.245 158.748)" fill="#fff"/>
    <path id="Path_13" data-name="Path 13" d="M96.641,148.741a8.854,8.854,0,0,0,1.308.073c1.606,0,3.1-.59,3.1-2.349,0-1.641-1.415-2.327-3.114-2.327H96.641Zm0-5.782h1.414c1.65,0,2.612-.858,2.612-2.026,0-1.41-1.074-1.964-2.651-1.964a6.59,6.59,0,0,0-1.375.109Zm-1.556-4.936a15.349,15.349,0,0,1,2.847-.25,4.993,4.993,0,0,1,3.309.874,2.533,2.533,0,0,1,1.005,2.129,2.873,2.873,0,0,1-2.04,2.652v.032a3.111,3.111,0,0,1,2.483,3.024,3.246,3.246,0,0,1-1.019,2.413c-.84.776-2.205,1.131-4.168,1.131a19.255,19.255,0,0,1-2.417-.139Z" transform="translate(14.416 20.888)" fill="#fff"/>
    <rect id="Rectangle_19" data-name="Rectangle 19" width="1.557" height="12.061" transform="translate(137.805 158.748)" fill="#fff"/>
    <path id="Path_14" data-name="Path 14" d="M142.652,139.17h-3.663v-1.322h8.925v1.322h-3.687v10.74h-1.574Z" transform="translate(21.072 20.899)" fill="#fff"/>
    <rect id="Rectangle_20" data-name="Rectangle 20" width="1.557" height="12.061" transform="translate(189.685 158.748)" fill="#fff"/>
    <path id="Path_15" data-name="Path 15" d="M185.709,143.981c0,2.569,1.392,4.881,3.843,4.881,2.476,0,3.867-2.273,3.867-5.008,0-2.4-1.249-4.907-3.849-4.907-2.58,0-3.861,2.383-3.861,5.035m9.355-.206c0,4.156-2.515,6.352-5.6,6.352-3.189,0-5.425-2.462-5.425-6.114,0-3.833,2.385-6.336,5.609-6.336,3.282,0,5.415,2.53,5.415,6.1" transform="translate(27.902 20.873)" fill="#fff"/>
    <path id="Path_16" data-name="Path 16" d="M211.589,149.91V137.849h1.7l3.861,6.107a33.97,33.97,0,0,1,2.164,3.912l.04-.018c-.147-1.606-.177-3.072-.177-4.952v-5.049h1.458V149.91h-1.568l-3.83-6.116a38.984,38.984,0,0,1-2.255-4.031l-.053.018c.093,1.521.122,2.969.122,4.973v5.156Z" transform="translate(32.079 20.899)" fill="#fff"/>
    <path id="Path_17" data-name="Path 17" d="M237.813,148.038a5.541,5.541,0,0,0,2.794.79c1.6,0,2.522-.843,2.522-2.061,0-1.122-.643-1.776-2.278-2.4-1.966-.7-3.183-1.719-3.183-3.423,0-1.874,1.557-3.271,3.9-3.271a5.548,5.548,0,0,1,2.672.592l-.435,1.269a4.845,4.845,0,0,0-2.293-.571c-1.643,0-2.263.987-2.263,1.81,0,1.125.723,1.681,2.392,2.318,2.042.8,3.076,1.779,3.076,3.542,0,1.868-1.375,3.489-4.216,3.489a6.275,6.275,0,0,1-3.082-.78Z" transform="translate(35.995 20.873)" fill="#fff"/>
    <path id="Path_18" data-name="Path 18" d="M146.263,50.341a56.27,56.27,0,0,1,25.951-6.321,43.87,43.87,0,0,1-31.095-12.9A43.879,43.879,0,0,1,128.226.017a56.357,56.357,0,0,1-6.317,25.966,56.9,56.9,0,0,0,24.354,24.358" transform="translate(18.482 0.003)" fill="#fcbb76"/>
    <path id="Path_19" data-name="Path 19" d="M121.925,68.023a56.366,56.366,0,0,1,6.3,25.946v.084A44.025,44.025,0,0,1,172.249,50.03a56.459,56.459,0,0,1-25.988-6.314,56.893,56.893,0,0,0-24.336,24.307" transform="translate(18.485 6.628)" fill="#f287b7"/>
    <path id="Path_20" data-name="Path 20" d="M143.057,44.548a56.445,56.445,0,0,0,25.988,6.314V38.227h-.037a56.27,56.27,0,0,0-25.951,6.321" transform="translate(21.689 5.796)" fill="#f7941e"/>
    <path id="Path_21" data-name="Path 21" d="M104.049,43.675A56.41,56.41,0,0,1,79.656,50a43.991,43.991,0,0,1,42.339,43.979h0a56.436,56.436,0,0,1,6.336-25.946,56.941,56.941,0,0,0-24.285-24.354" transform="translate(12.076 6.621)" fill="#67c18c"/>
    <path id="Path_22" data-name="Path 22" d="M122.759,64.823a56.45,56.45,0,0,0-6.336,25.946h12.634a56.365,56.365,0,0,0-6.3-25.946" transform="translate(17.651 9.828)" fill="#ec008c"/>
    <path id="Path_23" data-name="Path 23" d="M128.311,25.986A56.387,56.387,0,0,1,121.99,0,43.849,43.849,0,0,1,109.1,31.127a43.856,43.856,0,0,1-29.41,12.85,56.362,56.362,0,0,1,24.355,6.32,56.942,56.942,0,0,0,24.267-24.31" transform="translate(12.082)" fill="#44c8f5"/>
    <path id="Path_24" data-name="Path 24" d="M129.058.02V0H116.421a56.386,56.386,0,0,0,6.32,25.986A56.36,56.36,0,0,0,129.058.02" transform="translate(17.65)" fill="#00aeef"/>
    <path id="Path_25" data-name="Path 25" d="M79.914,38.186c-.572.023-1.146.046-1.718.046V50.78c.561,0,1.124.024,1.68.047a56.394,56.394,0,0,0,24.393-6.321,56.362,56.362,0,0,0-24.355-6.32" transform="translate(11.855 5.789)" fill="#00a651"/>
  </g>
</svg>
