<svg xmlns="http://www.w3.org/2000/svg" xmlns:xlink="http://www.w3.org/1999/xlink" width="82" height="81" viewBox="0 0 82 81">
  <defs>
    <clipPath id="clip-path">
      <rect id="Rectangle_59" data-name="Rectangle 59" width="82" height="81" transform="translate(0 0.5)" fill="#fff"/>
    </clipPath>
  </defs>
  <g id="since_5" transform="translate(0 -0.5)">
    <g id="Group_1083" data-name="Group 1083" transform="translate(0 0)" clip-path="url(#clip-path)">
      <path id="Path_384" data-name="Path 384" d="M40.75,0A40.75,40.75,0,1,0,81.5,40.75,40.8,40.8,0,0,0,40.75,0m15.2,6.451q1.049.467,2.064,1c-.705.649-.543,1.525-1.483.961s-.8-1.16-.581-1.957M5.619,28.749c-.131.849,1.176,1.7.751,2.677s-.261,1.176-1.307,1.8a6.542,6.542,0,0,0-1.252.953A37.162,37.162,0,0,1,5.6,27.623a4.085,4.085,0,0,1,.022,1.126M40.75,78.277A37.413,37.413,0,0,1,13.784,66.808a3.3,3.3,0,0,0,.613-2.883c-.484-1.393-.135-.044-1.4-2.525s-1.523-2.481-1.741-3.178-.435-.479-.741-1.045l-.3-.566s-.131-1.174-.392-.152.044,2.59-.7,2.808a1.2,1.2,0,0,1-1-.3,2.264,2.264,0,0,1-.28-.192c-.2-.361-.384-.727-.571-1.095.052-.544.256-1.194-.369-1.194-.076,0-.145,0-.214,0a37.352,37.352,0,0,1-1.653-4.215l.6.605s.609-.218,1.7.522l1.089.74s-1.089.479,0,.783,2,1.038,2.482.476l.479-.563s-.174-.3.914.261l1.088.567s1.089.827,1,0l-.087-.828s-.044.479-1.089-.174.435-.959-1.219-1.59-2.438-1.24-3.352-1.109l-.914.131a.636.636,0,0,1-.828.3c-.165-.082-.3-1.045-1.088-1.088a9.111,9.111,0,0,0-1.074-.006,37.153,37.153,0,0,1-1.162-15.65,7.193,7.193,0,0,0,1.061-.626c.751-.425,2.514-.457,2.611-.914a4.234,4.234,0,0,0,0-1.339c-.032-.947-.392-2.089-.425-2.677s.36-.98.719-1.535.882-.881,0-.816a2.162,2.162,0,0,1-1.534-.587s-.047-.122-.108-.3a37.508,37.508,0,0,1,3.013-5.936c.38.908.853,1.82,1.177,1.666.62-.294.424-.816.359-1.535s.13-1.7.081-2.383c0-.033-.016-.069-.02-.1A37.471,37.471,0,0,1,51.572,4.821a2.592,2.592,0,0,1-.5.485c-.914.718-1.109.718-1.6,1.4s-1.436.719-1.045,1.437,1.241.457.359.947-2.024.489-1.077,1.208a11.377,11.377,0,0,0,1.143.816s1.958.457.359.327l-1.6-.131s-.849-.882-.915-.261a3.368,3.368,0,0,0,.327,2.611c.686.947,1.013,2.482.131,2.612s-.719-.686-.75-1.339-.033-.816-.033-.816a5.387,5.387,0,0,1-1.013-1.927l-.1-.783s-.033-1.5-.816-1.013a1.915,1.915,0,0,0-.392,2.384c.327.783,1.241,1.633.719,1.73a3.612,3.612,0,0,1-1.992-.392c-.686-.326.163.457-.326.783s-.654.033-1.6.327-1.4-.327-1.861.425-.719.228-1.045,1.175-1.209,0-1.568.751-.065,1.6-.816,1.469-.881-.457-1.273-1.013-.719-.914-.1-.816,1.894,0,1.992-.555.456-.848-.425-1.142a16,16,0,0,0-2.906-.4c-1.306-.044-1-1-1.741-1.175a2.316,2.316,0,0,0-2.221.588c-.609.631-1.742,1.85-1.742,1.85a10.656,10.656,0,0,1-.827,2.264,11.942,11.942,0,0,1-1.655,1.567,1.884,1.884,0,0,0-.827,1.916l.087.74s.435.653,1,.3,1.263-1,1.307-.392.985,1.214.593,1.573a6.719,6.719,0,0,0-.588.7c-.162.147-.473-.066-.424-.278s.342-1.077-.049-.914l-.392.162s-.213,0-.278.327a1.838,1.838,0,0,0,.2,1.013c.147.392.294.571-.015.587a1.783,1.783,0,0,0-1.094.278c-.588.327-.7.49-.816.8a1.738,1.738,0,0,1-.719.866,5.36,5.36,0,0,1-1.127.588c-.309.065-.228.456-.767.375s-.621.114-.2.359.457.163.751.572a1.534,1.534,0,0,1,.278,1.274c-.131.245-.2.261-1.061.261h-.866a.965.965,0,0,0-.783.245c-.246.31-.049.816-.262,1.224a3.383,3.383,0,0,0-.375,1.16c-.016.278-.081.718.49.767l.571.049a.823.823,0,0,1,.262.783c-.132.441-.936.539-1.334,1.077a1.686,1.686,0,0,0-.332,1.208c-.016.327.261.6-.654.93a3.377,3.377,0,0,0-1.486,1.143c-.147.147-1.142,1.339-1.045,1.943s.539.767.441,1.224a6.914,6.914,0,0,1-.448,1.567c-.254.539.154.425.17.816s-.18.18.489.719l.669.539a3.483,3.483,0,0,0,.523,1.241,4.115,4.115,0,0,0,1.664,1.208c.669.31.719-.033,1.7,0s1.29.245,2.105-.2,1.649-1.029,2.123-.735.555,1.077,1.159,1.061,1.47.425,1.339,1.16-.98,1.534-.621,1.958a8.9,8.9,0,0,1,1.421,1.763c.163.49,1.012,1.355.522,2.041a2.975,2.975,0,0,0-.359,2.923c.473,1.257,1.208,2.563,1.109,3.1s1.257,1.894,1.257,2.612,1.535,1.029,1.959.735a23.345,23.345,0,0,0,2.987-2.009A12.859,12.859,0,0,0,37.313,60.8c.555-1.094,2.335-3.118,2.041-4.489s-.228-3.1.555-3.69A32.963,32.963,0,0,0,43.99,46.8c.229-.686.621-1.4-.554-1.045s-1.633,1.208-2.417.555-.686-.947-1.567-1.763A10.069,10.069,0,0,1,37.3,40.927c-.327-1.045.13-1.861.685-.979s1.927,2.611,2.384,3.232.359,1.8,1.633,1.535a10.4,10.4,0,0,0,3.232-1.143c1.339-.686,3.331-1.665,2.645-2.252a2.032,2.032,0,0,0-1.861-.751c-1.11,0-2.253.229-2.711-.359S42,38.348,42.587,38.055s.849.162,1.664.783,2.057-.033,2.776.425.653,1.077,2.123.719,2.416,1.664,2.938,1.73,1.633-.327,1.861.359a27.048,27.048,0,0,0,.719,2.743c.425,1.045,1.045,3.363,1.469,2.808a12.7,12.7,0,0,0,1.4-1.763c.489-.848-.033-1.012.719-1.894a37.128,37.128,0,0,1,2.383-3.037,1.2,1.2,0,0,1,1.8.523c.228.686.719,3.135,1.176,2.775s1.37-.261,1.339.882a5.263,5.263,0,0,0,.783,3.2c.62.849,2.024,2.612,2.318,2.318s-.261-.326-.261-1.077-.653-.881-1.143-1.6S65.573,45.727,66,45.6s1.4.49,1.568,1.077a.687.687,0,0,0,1.208.2c.359-.392.881-.686,1.012-1.469s.327-1.176-.587-1.8-1.4-.816-1.078-1.208.585-.588,1.779-.915a5.355,5.355,0,0,0,3.021-2.024,6.843,6.843,0,0,0,.947-2.416l-.065-.392a21.693,21.693,0,0,1-1.274-2.285c-.228-.621-.033-.719.327-1.013s-.163-.065-.327-.849-.228-1.241.555-1.142,1.077.653,1.6,1.306.719,2.482,1.143,1.861,1.143-.718.588-1.469a3.11,3.11,0,0,1-.816-1.7c.065-.294-.163-1.665.718-1.894l.208-.054a37.252,37.252,0,0,1,1.273,5.36.794.794,0,0,0-.109.6c.056.177.135.25.234.267a36.96,36.96,0,0,1-.27,11.889c-.087-.145-.206-.322-.345-.586-.265-.508-.906-1.033-1.349-1.916-.356-.709-.216-1.262-.827-1.828-.77-.713-1.916.566-1.133,1.61l.784,1.045s1.088.828,1.175,1.524l.087.7s.479,1.524,1.262.609c.067-.076.114-.138.165-.2-.2.948-.44,1.88-.71,2.8l-.152,0c-.445-.019-.373.338.015.487-.309,1-.666,1.989-1.056,2.957-.18-.012-.385-.032-.656-.073-1.742-.261-2.046-.261-2.046-.261s-.3.435-1.829-.3l-1.523-.74s-.87.114-.87-.6-.871-1.232-1.307-1.276c-.551-.055-.609-.74-1.349-1.219s-.653.3,0,1.393a7.061,7.061,0,0,0,1.915,2,8.7,8.7,0,0,0,2.743,1.132l1.829.348a12.571,12.571,0,0,0,2.837.241,37.49,37.49,0,0,1-2.961,5.582,1.642,1.642,0,0,0-.4.359c-.49.613-.7.78-.7,1.26a37.5,37.5,0,0,1-30.5,15.7M43.632,32.21s.066.2.261.686a1.893,1.893,0,0,1-.1,1.761c-.392.716-.947-.324-1.176-1.271a3.11,3.11,0,0,0-.382-1.11s-.14-.163-.662-.751-.522-.979-.261-1.109.751-.751,1.4-.751.392,1.176.392,1.5Zm-18.97-.686c1.143-.456,1.11.066,1.371.393a19.07,19.07,0,0,0,2.024,1.534c.915.686-.294.425-.783.937s.75.434,1.568,0,.162-.9.555-1.362-.588-.2-1.241-.653a2.344,2.344,0,0,1-.98-1.665c-.163-.718.947.588,2.285,1.4s.555,1.208.719,1.73a1.056,1.056,0,0,0,1.4.523c.523-.229.131-1.241.816-1.4s.261,1.274,1.535,2.252,1.469.1,2.645-.261.425.816.228,1.274-1.273.686-2.482,1.077-1.8-.359-2.84-.522-.751.588-1.306,1.274-.849-.36-2.318-1.274-1.307-.588-1.47-1.266-.326-.563-1.273-.628a7.152,7.152,0,0,0-2.546.2,10.148,10.148,0,0,1-1.927.422c-.654.066-.588-.294-.327-.555s.812-.252,1.175-.3c.564-.069.98-1.173,1.455-1.957s.407-.588.407-.588a7.729,7.729,0,0,1,1.306-.588m10.416.393c-1.274-.033-1.143.653-1.5.131s-.033-1.045.489-1.862,1.013,0,1.013,0l.392.392,1.829.2,1.109.489c1.11.49.555.686-.065,1.013s-1.992-.327-3.265-.359M39.223,13.24c-.456-.327-.326-1.568-.162-2.417a3.846,3.846,0,0,1,1.273-2.644c1.045-.915.816-.816,1.927-1.143s-.033.849-.327,1.143c0,0-.359.425-.848.979a7.26,7.26,0,0,0-.816,2.547c-.163.62.228,1.4.163,1.8s-.751.065-1.209-.261m-20.5,12.995c0-.62.881-1.077.751-1.633s-.033-.719.425-1.208.882-.425,1.11.163.1.588.261,1.045l.555.839s.98.761,1.11,1.154-.49,1.077-1.371,1.208-.588-.816-1.11-1.829-.653.261-.98.653-.751.229-.751-.392M43.6,59.311a5.676,5.676,0,0,1-.783,2.188,4.128,4.128,0,0,1-1.535,1.175c-.555.327-.587-1.4-.228-2.351a3.774,3.774,0,0,0,.228-1.894c0-.653.686-.457,1.5-1.11s.816-1.045.816-1.045c.588-.849.1,2.318,0,3.037m26.306-8.4c-.3-1,.51-.584,1.684-.8.328-.059,1.755-1.815,2.452-2.381s.654.7.654.7L74.3,49.471c-.392,1.045-.218,1-.218,1l-.3.74c-.3.74-.261.827-.566,1.537s-.783-.013-.783-.013l-1.394-.175c-1.393-.174-.827-.653-.827-.653Z" transform="translate(0 0)" fill="#fff"/>
    </g>
  </g>
</svg>
