<svg xmlns="http://www.w3.org/2000/svg" width="81.002" height="81" viewBox="0 0 81.002 81">
  <g id="since_4" transform="translate(526.156 -60)">
    <path id="Path_18" data-name="Path 18" d="M141.5,40.5a45.271,45.271,0,0,1,20.879-5.086,35.3,35.3,0,0,1-25.016-10.375A35.3,35.3,0,0,1,126.991.017a45.34,45.34,0,0,1-5.082,20.891A45.774,45.774,0,0,0,141.5,40.5" transform="translate(-607.565 59.999)" fill="#fcbb76"/>
    <path id="Path_19" data-name="Path 19" d="M121.925,63.272a45.347,45.347,0,0,1,5.067,20.874v.068A35.419,35.419,0,0,1,162.412,48.8a45.423,45.423,0,0,1-20.908-5.08,45.772,45.772,0,0,0-19.579,19.556" transform="translate(-607.566 56.787)" fill="#f287b7"/>
    <path id="Path_20" data-name="Path 20" d="M143.057,43.313a45.411,45.411,0,0,0,20.908,5.08V38.227h-.03a45.271,45.271,0,0,0-20.879,5.086" transform="translate(-609.119 57.19)" fill="#f7941e"/>
    <path id="Path_21" data-name="Path 21" d="M99.281,43.675a45.383,45.383,0,0,1-19.625,5.086,35.392,35.392,0,0,1,34.063,35.382h0a45.4,45.4,0,0,1,5.1-20.874A45.811,45.811,0,0,0,99.281,43.675" transform="translate(-604.459 56.79)" fill="#67c18c"/>
    <path id="Path_22" data-name="Path 22" d="M121.521,64.823a45.416,45.416,0,0,0-5.1,20.874h10.165a45.347,45.347,0,0,0-5.067-20.874" transform="translate(-607.162 55.235)" fill="#ec008c"/>
    <path id="Path_23" data-name="Path 23" d="M118.807,20.906A45.365,45.365,0,0,1,113.721,0,35.277,35.277,0,0,1,103.35,25.042,35.283,35.283,0,0,1,79.689,35.38a45.345,45.345,0,0,1,19.595,5.085,45.811,45.811,0,0,0,19.523-19.558" transform="translate(-604.462 60)" fill="#44c8f5"/>
    <path id="Path_24" data-name="Path 24" d="M126.587.016V0H116.421a45.364,45.364,0,0,0,5.085,20.906A45.343,45.343,0,0,0,126.587.016" transform="translate(-607.162 60)" fill="#00aeef"/>
    <path id="Path_25" data-name="Path 25" d="M79.578,38.186c-.46.019-.922.037-1.382.037v10.1c.451,0,.9.019,1.352.038a45.37,45.37,0,0,0,19.625-5.086,45.345,45.345,0,0,0-19.595-5.085" transform="translate(-604.352 57.193)" fill="#00a651"/>
  </g>
</svg>
