<svg id="since_6" xmlns="http://www.w3.org/2000/svg" xmlns:xlink="http://www.w3.org/1999/xlink" width="80.711" height="81" viewBox="0 0 80.711 81">
  <defs>
    <clipPath id="clip-path">
      <rect id="Rectangle_60" data-name="Rectangle 60" width="80.711" height="81" fill="#fff"/>
    </clipPath>
  </defs>
  <g id="Group_1085" data-name="Group 1085" clip-path="url(#clip-path)">
    <path id="Path_385" data-name="Path 385" d="M155.5,19.369c-33.769-40.138-52.252-5.442-52.252-5.442,18.334-7.6,39.13,1.459,39.13,1.459C118.6,7.27,96.433,19.67,96.433,19.67l.267,2.321c1.158-1.5,5.926-3.438,5.926-3.438s9.325,13.978,28.053,10.148a35.417,35.417,0,0,0,7.628-2.522c4.47-2.045,15.614-7.045,17.188-6.811" transform="translate(-85.151 -0.001)" fill="#fff"/>
    <path id="Path_386" data-name="Path 386" d="M25.152,263.575a35.423,35.423,0,0,0-6-5.345c-4.006-2.849-13.909-10-14.493-11.48-17.876,49.314,21.414,47.973,21.414,47.973C10.323,282.646,7.774,260.1,7.774,260.1c4.86,24.651,26.681,37.644,26.681,37.644l1.877-1.391c-1.876-.254-5.941-3.413-5.941-3.413s7.443-15.064-5.238-29.369" transform="translate(0.001 -217.882)" fill="#fff"/>
    <path id="Path_387" data-name="Path 387" d="M421.727,255.615c-2.581,19.68-20.828,33.158-20.828,33.158,18.918-16.534,19.26-41.928,19.26-41.928l-2.143-.93c.718,1.751.014,6.851.014,6.851s-16.768,1.086-22.815,19.221a35.429,35.429,0,0,0-1.63,7.867c-.464,4.894-1.706,17.045-2.7,18.291,51.645-9.176,30.839-42.531,30.839-42.531" transform="translate(-345.158 -217.146)" fill="#fff"/>
  </g>
</svg>
