<svg id="tag" xmlns="http://www.w3.org/2000/svg" xmlns:xlink="http://www.w3.org/1999/xlink" width="682.222" height="64.604" viewBox="0 0 682.222 64.604">
  <defs>
    <clipPath id="clip-path">
      <rect id="Rectangle_22" data-name="Rectangle 22" width="682.222" height="64.604" fill="none"/>
    </clipPath>
  </defs>
  <g id="Group_3" data-name="Group 3" transform="translate(0 0)" clip-path="url(#clip-path)">
    <path id="Path_26" data-name="Path 26" d="M18.711,31.258a1.582,1.582,0,0,0-.891-1.6,3.874,3.874,0,0,0-1.541-.4,6.313,6.313,0,0,0-5.085,2.54,27.9,27.9,0,0,0-2.919,5.136c.505.471.812.74.919.812a2.461,2.461,0,0,0,1.3.272,7.821,7.821,0,0,0,1.541-.162c.524-.11,1.072-.25,1.65-.433a8.157,8.157,0,0,0,3.3-2.6,5.986,5.986,0,0,0,1.729-3.567M24.065,3.14q0,3.088-3.3,10.5-1.676,3.846-5.028,10.342a15.317,15.317,0,0,1,4.433,2.924,6.42,6.42,0,0,1,2.271,4.55,11.446,11.446,0,0,1-3,8.2,10.411,10.411,0,0,1-7.924,3.167,21.919,21.919,0,0,1-6.324-.759A9.137,9.137,0,0,1,0,38.5q3.406-2.385,8.219-10.28a155.424,155.424,0,0,0,8.112-15.352Q19.844,5.3,21.739,0h.54a13.256,13.256,0,0,1,1.247,1.354,3.162,3.162,0,0,1,.54,1.786" transform="translate(0 0)" fill="#fff"/>
    <path id="Path_27" data-name="Path 27" d="M45.456,32.024l-.488,1.028a8.877,8.877,0,0,1-4.379,1.243q-5.949,0-6.812-6.759-.328-3.241-.595-6.492a5.9,5.9,0,0,0-.272-1.186,1.045,1.045,0,0,0-.972-.705q-.76,0-3.029,3.678a54.31,54.31,0,0,1-4.7,6.818q-3.3,3.729-6.381,3.729a3.847,3.847,0,0,1-1.785-.485,1.465,1.465,0,0,1-.921-1.3,33.864,33.864,0,0,1,3.517-3.681,81.714,81.714,0,0,0,6.543-7.143q3.567-4.487,3.567-6.981v-.807q1.4,1.19,5.514,1.512t4.111,3.357a25.792,25.792,0,0,1-.7,4.383,13.308,13.308,0,0,0-.379,2.655q0,3.455,1.783,4.435,1.084.592,4.761.6a1.233,1.233,0,0,1,1.028.7,4.746,4.746,0,0,1,.595,1.407" transform="translate(10.948 9.399)" fill="#fff"/>
    <path id="Path_28" data-name="Path 28" d="M54.449,14.808a2.465,2.465,0,0,1-.729,1.71c-.486.522-.821.872-1,1.055-.469-1.085-.757-1.805-.866-2.169a7.19,7.19,0,0,1-.378-2.276l.162-2,2.65,2.712Zm8,18.287a3.427,3.427,0,0,1-1.917,1.757,7.374,7.374,0,0,1-2.84.567,7.138,7.138,0,0,1-4.217-1.186q-1.9-1.684-3.786-3.355-1.192.215-4.921,2.7a5.4,5.4,0,0,1-2.866,1.086c-2.85,0-4.688-.2-5.516-.6q-2.11-1.029-2.11-4.652A8.611,8.611,0,0,0,38.767,30.6a11.925,11.925,0,0,0,6.112-1.509q2.434-1.684,4.921-3.407.918,0,2.7,2.591a6.065,6.065,0,0,0,5.355,2.6,14.953,14.953,0,0,0,1.84-.134c.719-.091,1.4-.188,2.054-.3a2.98,2.98,0,0,0,.217,1.3,7.73,7.73,0,0,1,.485,1.354" transform="translate(24.825 8.058)" fill="#fff"/>
    <path id="Path_29" data-name="Path 29" d="M93.257,19.561A9.266,9.266,0,0,1,90.5,26.484a9.616,9.616,0,0,1-7.03,2.707,6.423,6.423,0,0,1-4.352-1.335,7.248,7.248,0,0,1-2.136-4.071q-2.868,3.644-4.516,5.583T69.409,31.3a2.193,2.193,0,0,1-2-.922A4.317,4.317,0,0,1,66.815,28a11.147,11.147,0,0,1,.052-1.238q.054-.435.324-1.845L53.619,33.4q-.6-1.19-.759-1.566a4.9,4.9,0,0,1-.485-1.729q0-1.078,4.162-4.435a87.6,87.6,0,0,1,8.356-5.943c3.083-1.94,5.019-2.919,5.814-2.919a3.017,3.017,0,0,1,2.216.921,4,4,0,0,0,1.838,1.248,6.713,6.713,0,0,0,1.516-.9q.918-.678,2.81-2.305c.326.04,1.128,1.191,2.407,3.467s2.981,3.417,5.111,3.417a7.836,7.836,0,0,0,3.354-1.195c1.081-.616,2.179-1.243,3.3-1.9" transform="translate(37.931 11.419)" fill="#fff"/>
    <path id="Path_30" data-name="Path 30" d="M95.576,21.29a4.37,4.37,0,0,1-3.893-1.921,3.871,3.871,0,0,0-3.3-1.916,5.428,5.428,0,0,0-1.433.159A14.862,14.862,0,0,0,84.76,18.64a52.244,52.244,0,0,0,2.486,5.685q2.866,5.783,2.866,9.89,0,4.867-4.433,10.388-4.653,5.783-9.354,5.78a1.968,1.968,0,0,1-1.921-.969,5.459,5.459,0,0,1-.514-2.545q0-3.3,3.569-6.217,3.352-2.268,6.705-4.488,3.621-2.491,3.624-4.647,0-2.708-3.409-7.681T80.974,16.1a2.944,2.944,0,0,1,1.947-2.755,8.738,8.738,0,0,1,3.678-.707,9.631,9.631,0,0,1,6.247,2.219,6.944,6.944,0,0,1,2.731,5.626Z" transform="translate(53.512 9.153)" fill="#fff"/>
    <path id="Path_31" data-name="Path 31" d="M121.764,17.954q0,1.619-3.838,9.247T110.3,42.332q-4.487,8.915-5.354,11.944a3.681,3.681,0,0,1-2.217-3.562q0-2.708,2.381-7.623,2.214-4.27,4.433-8.537,2.434-4.924,2.435-7.407-2,1.3-3.409,2.054a8.556,8.556,0,0,1-3.729,1.188,3.13,3.13,0,0,1-2.569-1.269,4.563,4.563,0,0,1-1-2.9q0-2.436,2.162-6.223.7-1.19,3.733-5.736a8.106,8.106,0,0,1,1.352,1.7,3.965,3.965,0,0,1,.431,1.926,9.479,9.479,0,0,1-.324,2.222q-.486,1.893-.974,3.788a24.236,24.236,0,0,0,6.573-3.567,26.5,26.5,0,0,0,5.38-5.521h.486a6.022,6.022,0,0,1,1.11,1.517,3.715,3.715,0,0,1,.566,1.622" transform="translate(73.34 10.329)" fill="#fff"/>
    <path id="Path_32" data-name="Path 32" d="M127.713,19.9l-.591-.543h-2.164c-.974,0-2.433.788-4.381,2.376s-2.921,2.847-2.921,3.788a1.358,1.358,0,0,0,.569,1.133,2.048,2.048,0,0,0,1.269.433,5.334,5.334,0,0,0,2-.384c.826-.393,1.44-.686,1.84-.869a7.135,7.135,0,0,0,4.376-5.933m3.895,1.886q0,3.68-4.976,6.818a16.157,16.157,0,0,1-8.545,2.86,3.866,3.866,0,0,1-3.024-1.133,4.4,4.4,0,0,1-1.028-3.081q0-3.623,3.352-7.681,3.569-4.322,7.136-4.326a7.123,7.123,0,0,1,4.814,2.031,5.965,5.965,0,0,1,2.271,4.512" transform="translate(82.585 11.038)" fill="#fff"/>
    <path id="Path_33" data-name="Path 33" d="M148.749,34.176c0,.5-.343.9-1.028,1.19a4.921,4.921,0,0,1-1.891.433,4.149,4.149,0,0,1-3.136-1.571,31.059,31.059,0,0,1-3.083-5.567c-2.307,1.007-3.985,1.7-5.03,2.054a16.352,16.352,0,0,1-5.136,1.191,3.272,3.272,0,0,1-2.65-.974,4.3,4.3,0,0,1-.812-2.814,15.4,15.4,0,0,1,2.379-7.418,38.283,38.283,0,0,1,4.705-6.438c.5-.033,1.1.428,1.783,1.383a4.412,4.412,0,0,1,1.028,2.247q0,1.461-2.162,5.2c-.576.969-1.154,1.948-1.731,2.919a28.12,28.12,0,0,0,8.437-4.436q1.3-.916,4.543-3.562a10.637,10.637,0,0,1,1.135,1.617,4.231,4.231,0,0,1,.486,2,20.7,20.7,0,0,1-1.405,3.947,8.5,8.5,0,0,0-.757,3.083q0,.763,2.162,2.755t2.164,2.76" transform="translate(91.238 10.327)" fill="#fff"/>
    <path id="Path_34" data-name="Path 34" d="M170.811,32.024l-.488,1.028a8.883,8.883,0,0,1-4.381,1.243q-5.946,0-6.812-6.759-.326-3.241-.595-6.492a5.818,5.818,0,0,0-.271-1.186,1.047,1.047,0,0,0-.972-.705q-.76,0-3.029,3.678a54.27,54.27,0,0,1-4.705,6.818q-3.3,3.729-6.38,3.729a3.853,3.853,0,0,1-1.786-.485,1.463,1.463,0,0,1-.919-1.3,33.648,33.648,0,0,1,3.517-3.681,81.713,81.713,0,0,0,6.543-7.143q3.567-4.487,3.566-6.981v-.807q1.4,1.19,5.514,1.512t4.112,3.357a25.792,25.792,0,0,1-.7,4.383,13.308,13.308,0,0,0-.379,2.655q0,3.455,1.783,4.435,1.084.592,4.761.6a1.235,1.235,0,0,1,1.028.7,4.791,4.791,0,0,1,.595,1.407" transform="translate(101.731 9.399)" fill="#fff"/>
    <path id="Path_35" data-name="Path 35" d="M191.516,31.258a1.583,1.583,0,0,0-.893-1.6,3.833,3.833,0,0,0-1.541-.4A6.3,6.3,0,0,0,184,31.8a27.834,27.834,0,0,0-2.924,5.136,11.36,11.36,0,0,0,.922.812,2.457,2.457,0,0,0,1.3.272,7.835,7.835,0,0,0,1.541-.162c.522-.11,1.074-.25,1.65-.433a8.2,8.2,0,0,0,3.3-2.6,5.986,5.986,0,0,0,1.729-3.567M196.868,3.14q0,3.088-3.3,10.5-1.679,3.846-5.026,10.342a15.192,15.192,0,0,1,4.431,2.924,6.407,6.407,0,0,1,2.271,4.55,11.432,11.432,0,0,1-3,8.2,10.4,10.4,0,0,1-7.921,3.167A21.969,21.969,0,0,1,178,42.069a9.139,9.139,0,0,1-5.19-3.566q3.406-2.385,8.219-10.28a155.431,155.431,0,0,0,8.112-15.352Q192.653,5.3,194.546,0h.541a13.268,13.268,0,0,1,1.243,1.354,3.161,3.161,0,0,1,.538,1.786" transform="translate(125.148 0)" fill="#fff"/>
    <path id="Path_36" data-name="Path 36" d="M218.258,32.024l-.481,1.028a8.881,8.881,0,0,1-4.378,1.243q-5.961,0-6.819-6.759-.323-3.241-.595-6.492a5.991,5.991,0,0,0-.269-1.186,1.051,1.051,0,0,0-.976-.705q-.755,0-3.024,3.678a55.074,55.074,0,0,1-4.7,6.818q-3.305,3.729-6.385,3.729a3.83,3.83,0,0,1-1.783-.485,1.462,1.462,0,0,1-.921-1.3,33.781,33.781,0,0,1,3.514-3.681,80.365,80.365,0,0,0,6.543-7.143q3.572-4.487,3.573-6.981v-.807q1.4,1.19,5.511,1.512t4.117,3.357a25.8,25.8,0,0,1-.71,4.383,13.644,13.644,0,0,0-.376,2.655q0,3.455,1.786,4.435,1.081.592,4.754.6a1.22,1.22,0,0,1,1.028.7,4.7,4.7,0,0,1,.595,1.407" transform="translate(136.096 9.399)" fill="#fff"/>
    <path id="Path_37" data-name="Path 37" d="M224.36,19.715a3.5,3.5,0,0,0-.491-1.814,1.545,1.545,0,0,0-1.409-.836,5.568,5.568,0,0,0-2.805,1.245c-.757.541-1.267.9-1.516,1.079a15.943,15.943,0,0,0-3.188,2.766q-1.094,1.187-4.388,5.685c.288.288.593.585.922.891a1.591,1.591,0,0,0,1.133.462c1.766,0,4.119-1.066,7.036-3.2q4.7-3.463,4.705-6.28m10.649,12.992a8.089,8.089,0,0,1-2.757,3.907,6.736,6.736,0,0,1-4.329,1.824c-1.795,0-3.331-1.631-4.588-4.9q-1.037-3.06-1.357-4.026a28.684,28.684,0,0,1-4.492,2.866,11.754,11.754,0,0,1-5.079,1.459,4.191,4.191,0,0,1-3.754-1.814,7.8,7.8,0,0,1-1.219-4.466q0-4.653,4.273-9.2a24.054,24.054,0,0,1,8.7-5.952c1.738.253,3.735,1.335,6.011,3.245q3.673,3.067,3.678,5.443c0,.688-.855,2.631-2.545,5.833a8.656,8.656,0,0,0-1.248,3.885,2.8,2.8,0,0,0,.653,1.891,2.238,2.238,0,0,0,1.786.753,10.368,10.368,0,0,0,2.052-.226,25.591,25.591,0,0,1,3.459-.528Z" transform="translate(150.224 8.987)" fill="#fff"/>
    <path id="Path_38" data-name="Path 38" d="M266.06,19.561a9.251,9.251,0,0,1-2.755,6.923,9.6,9.6,0,0,1-7.03,2.707,6.419,6.419,0,0,1-4.348-1.335,7.242,7.242,0,0,1-2.142-4.071q-2.866,3.644-4.514,5.583T242.219,31.3a2.21,2.21,0,0,1-2.007-.922,4.347,4.347,0,0,1-.6-2.381,10.076,10.076,0,0,1,.059-1.238c.038-.29.145-.9.326-1.845L226.424,33.4c-.393-.793-.643-1.316-.759-1.566a5.018,5.018,0,0,1-.479-1.729q0-1.078,4.157-4.435a87.131,87.131,0,0,1,8.354-5.943c3.083-1.94,5.021-2.919,5.817-2.919a3.027,3.027,0,0,1,2.219.921,3.985,3.985,0,0,0,1.833,1.248,6.536,6.536,0,0,0,1.517-.9c.616-.452,1.547-1.219,2.814-2.305.326.04,1.124,1.191,2.4,3.467s2.986,3.417,5.117,3.417a7.846,7.846,0,0,0,3.352-1.195c1.084-.616,2.179-1.243,3.293-1.9" transform="translate(163.081 11.419)" fill="#fff"/>
    <path id="Path_39" data-name="Path 39" d="M284.834,9.646a3.922,3.922,0,0,0-.7-2.324,2.385,2.385,0,0,0-2.054-.971q-2.434,0-4.983,6.328-2.263,5.617-2.267,8.7a12.989,12.989,0,0,0,.538,3.731c3.323-3.428,5.407-5.714,6.28-6.866a14.5,14.5,0,0,0,3.188-8.6m-15.68,20.066a1.659,1.659,0,0,0-1.248-1.569,6.854,6.854,0,0,0-2.543-.485q-3.357,0-7.355,3.159t-4,6.409a1.129,1.129,0,0,0,.481,1.026,2.2,2.2,0,0,0,1.248.322q2.809,0,7.949-3.081,5.46-3.3,5.464-5.781m17.082-16.447a12.656,12.656,0,0,1-2.65,7.028q-2.478,3.192-4.974,6.381c-1.805,2.454-2.7,4.574-2.7,6.38q0,2.535,3.888,8,1.57,2.11,3.14,4.273a6.638,6.638,0,0,1-4.869-2.54,82.836,82.836,0,0,1-5.405-8.642q-3.729,2.7-7.412,5.411-4.811,3.083-8.324,3.083-6.437,0-6.442-6.549,0-5.186,4.7-8.757a15.884,15.884,0,0,1,9.9-3.35,6.7,6.7,0,0,1,3.14.864c1.257.826,2.179,1.421,2.755,1.786a76.486,76.486,0,0,0,1.133-8.545,34.891,34.891,0,0,1,2.112-9.954,16.588,16.588,0,0,1,2.709-3.945q2.317-2.651,3.831-2.65,2.822,0,4.33,4.647a22.547,22.547,0,0,1,1.133,7.081" transform="translate(181.407 1.113)" fill="#fff"/>
    <path id="Path_40" data-name="Path 40" d="M310.682,7.879c0,.791-.624,2.473-1.891,5.026-.576,1.124-1.891,3.514-3.947,7.192-1.545,2.779-2.543,4.547-2.976,5.3a17.284,17.284,0,0,0,3.083.433c1.16.076,2.293.11,3.407.11a.936.936,0,0,0,.893.705c.414,0,.75.433,1,1.3-.315,1.19-1.622,2.074-3.888,2.65-.691.183-2.4.452-5.136.81-1.3.178-3.016,1.479-5.136,3.893-1.517,1.835-3.035,3.678-4.542,5.512a7.043,7.043,0,0,1-.222-1.835c0-.466.059-1.185.164-2.16s.164-1.722.164-2.266a5.108,5.108,0,0,1-.059-.643l-.105-1.085c-1.19.143-2.381.274-3.571.384a2.68,2.68,0,0,1-2.026-.893,3.03,3.03,0,0,1-.836-2.141c0-.616.845-1.21,2.545-1.786,4.859-1.622,7.335-2.467,7.4-2.545.979-.753,2.343-2.648,4.111-5.674q.864-1.412,4.867-8.823a72.2,72.2,0,0,1,4.331-7.3c.969.976,1.507,1.533,1.622,1.676a3.488,3.488,0,0,1,.748,2.166" transform="translate(206.439 2.924)" fill="#fff"/>
    <path id="Path_41" data-name="Path 41" d="M314.731,19.9l-.595-.543h-2.16c-.971,0-2.44.788-4.378,2.376s-2.919,2.847-2.919,3.788a1.342,1.342,0,0,0,.566,1.133,2.026,2.026,0,0,0,1.267.433,5.308,5.308,0,0,0,2-.384c.834-.393,1.448-.686,1.843-.869a7.133,7.133,0,0,0,4.378-5.933m3.9,1.886q0,3.68-4.983,6.818a16.154,16.154,0,0,1-8.537,2.86,3.892,3.892,0,0,1-3.035-1.133,4.445,4.445,0,0,1-1.026-3.081q0-3.623,3.35-7.681,3.572-4.322,7.143-4.326a7.137,7.137,0,0,1,4.81,2.031,5.961,5.961,0,0,1,2.276,4.512" transform="translate(218.022 11.038)" fill="#fff"/>
    <path id="Path_42" data-name="Path 42" d="M351.92,11.286a10.944,10.944,0,0,0-.076-1.195c-.057-.436-.105-.764-.134-.985H350.4A4.535,4.535,0,0,0,348.9,9.7q-3.14,1.787-4.435,6.924a35.173,35.173,0,0,0-.922,8.6,18.567,18.567,0,0,0,5.954-6.073,14.707,14.707,0,0,0,2.428-7.869m5.733,27.836c-.681.143-1.459.269-2.324.379a18.915,18.915,0,0,1-2.381.164,12.125,12.125,0,0,1-5.9-1.466q-2.592-1.562-5.2-3.129-3.887,3.184-6.864,5.569c-2.238,1.767-4.014,2.65-5.348,2.65a2.745,2.745,0,0,1-2.141-.869,6.5,6.5,0,0,1-1.267-2.324h1.076a57.13,57.13,0,0,0,7.787-5.842q5.359-4.7,5.357-7.3a20.389,20.389,0,0,0-.21-2.6,43.739,43.739,0,0,1-.49-4.383,22.564,22.564,0,0,1,2.381-9.568Q345,4.294,349,4.3c2.054,0,3.716,1.067,4.973,3.188a11.436,11.436,0,0,1,1.622,6.005,15.5,15.5,0,0,1-2.43,8.273,48.244,48.244,0,0,1-4.819,5.9q-2.866,3.083-3.293,4.542.921,2.385,6.164,3.438t6.433,3.485" transform="translate(236.262 3.111)" fill="#fff"/>
    <path id="Path_43" data-name="Path 43" d="M366.2,14.808a2.5,2.5,0,0,1-.729,1.71c-.49.522-.826.872-1.009,1.055-.46-1.085-.748-1.805-.864-2.169a7.233,7.233,0,0,1-.374-2.276l.164-2,2.648,2.712Zm8,18.287a3.406,3.406,0,0,1-1.921,1.757,7.36,7.36,0,0,1-2.833.567,7.171,7.171,0,0,1-4.224-1.186c-1.259-1.122-2.526-2.238-3.783-3.355-.8.143-2.429,1.045-4.926,2.7a5.366,5.366,0,0,1-2.86,1.086c-2.852,0-4.686-.2-5.521-.6q-2.1-1.029-2.1-4.652a8.617,8.617,0,0,0,4.485,1.186,11.956,11.956,0,0,0,6.116-1.509c1.622-1.122,3.255-2.255,4.916-3.407q.923,0,2.709,2.591a6.059,6.059,0,0,0,5.347,2.6,14.937,14.937,0,0,0,1.845-.134c.719-.091,1.4-.188,2.054-.3a3.127,3.127,0,0,0,.212,1.3,7.845,7.845,0,0,1,.49,1.354" transform="translate(250.595 8.058)" fill="#fff"/>
    <path id="Path_44" data-name="Path 44" d="M375.425,40.32a5.605,5.605,0,0,0-.24-1.729,6.861,6.861,0,0,0-.845-1.674c-.028.11-.278.35-.729.729a7.134,7.134,0,0,0-.893.84,36.159,36.159,0,0,0-5.454,7.355,10.732,10.732,0,0,0-1.574,4.973,34.206,34.206,0,0,0,6.221-4.219q3.515-3.192,3.514-6.274m12.656-27.9q0,3.629-4.061,9.357-1.831,2.483-3.678,4.973c.326.072.624.14.893.188a5.022,5.022,0,0,0,1.007.086,9.008,9.008,0,0,0,1.891-.274,19.215,19.215,0,0,0,1.028,3.726q-2.592.541-4.657,1.133a18.591,18.591,0,0,0-4.426,1.729l-.441.859q.921,3.838,1.843,7.719a11.319,11.319,0,0,1-3.9,8.478l-9.514,6.155-1.191.164a2.3,2.3,0,0,1-2.236-1.191,6.289,6.289,0,0,1-.624-2.971,14.319,14.319,0,0,1,2.323-7.4q.864-1.412,4.378-5.943,2.379-3.083,2.383-4.426a4.705,4.705,0,0,0-.376-1.622,17.287,17.287,0,0,1-.921-2.593c0-.509.681-1.066,2.055-1.676,3.571-1.617,5.635-2.809,6.221-3.567a89.294,89.294,0,0,0,5.512-8.478q4.319-7.293,5.242-8.752c.4.936.672,1.643.817,2.109a6.6,6.6,0,0,1,.431,2.217" transform="translate(260.726 5.86)" fill="#fff"/>
    <path id="Path_45" data-name="Path 45" d="M392.085,20.065a1.406,1.406,0,0,0-.7-1.326,3.436,3.436,0,0,0-1.729-.409,2.249,2.249,0,0,0-2.543,2.55,8.312,8.312,0,0,0,.24,1.867,11.668,11.668,0,0,0,.681,1.978l.49-.541a3.848,3.848,0,0,0,2.333-1.547,4.2,4.2,0,0,0,1.229-2.573m17.033,12.611c-1.4,0-2.669.033-3.783.11-3.928.25-6.059.374-6.376.374a23.373,23.373,0,0,1-6.711-1.243c-1.259-.433-2.507-.879-3.726-1.348-.038,0-1.122.412-3.245,1.238a8.717,8.717,0,0,1-3.14.653,5.565,5.565,0,0,1-3.678-1.133,4.206,4.206,0,0,1-1.354-3.409c.509,0,1.209.043,2.112.134s1.44.134,1.623.134a5.843,5.843,0,0,0,2.352-.514,3.251,3.251,0,0,0,1.652-1.436c-.364-1.224-.584-1.948-.652-2.16a9.676,9.676,0,0,1-.269-2.276q0-5.687,5.674-7.259,1.945,1.138,3.947,2.224a4.884,4.884,0,0,1,1.948,4.166A7.425,7.425,0,0,1,393.6,25.21c-.864,1.009-1.479,1.733-1.843,2.166a23,23,0,0,0,5.145,1.267,45.689,45.689,0,0,0,5.886.355h6.328Z" transform="translate(273.104 10.531)" fill="#fff"/>
  </g>
</svg>
